<?xml version="1.0" encoding="UTF-8"?>
<!-- Generator: Adobe Illustrator 25.0.0, SVG Export Plug-In . SVG Version: 6.00 Build 0)  -->
<svg version="1.1" id="Layer_1" xmlns="http://www.w3.org/2000/svg" xmlns:xlink="http://www.w3.org/1999/xlink" x="0px" y="0px" viewBox="0 0 1000 200" style="enable-background:new 0 0 1000 200;" xml:space="preserve">
<style type="text/css">
	.st0{fill:#FFD113;}
	.st1{fill-rule:evenodd;clip-rule:evenodd;fill:#FFD113;}
</style>
<g>
	<g>
		<path class="st0" d="M339.03,107.24c3.44,4.17,5.16,8.95,5.16,14.34c0,4.87-1.24,9.15-3.74,12.84c-2.49,3.69-6.09,6.58-10.79,8.67    c-4.71,2.08-10.28,3.13-16.7,3.13h-40.87V55.23h39.11c6.43,0,11.97,1,16.63,3c4.66,2,8.19,4.78,10.59,8.34    c2.4,3.56,3.6,7.61,3.6,12.12c0,5.3-1.47,9.73-4.41,13.29c-2.94,3.56-6.86,6.08-11.74,7.56    C331.2,100.5,335.59,103.07,339.03,107.24z M291.09,92.77h17.38c4.53,0,8.01-0.98,10.46-2.93c2.44-1.96,3.67-4.76,3.67-8.41    c0-3.65-1.22-6.47-3.67-8.47c-2.44-2-5.93-3-10.46-3h-17.38V92.77z M321.03,128.22c2.58-2.09,3.87-5.04,3.87-8.86    c0-3.91-1.36-6.97-4.07-9.19c-2.72-2.22-6.38-3.32-11-3.32h-18.74v24.5h19.15C314.86,131.35,318.45,130.31,321.03,128.22z"/>
		<path class="st0" d="M430.41,74v72.21h-19.15v-9.12c-2.44,3.13-5.63,5.58-9.57,7.36c-3.94,1.78-8.22,2.67-12.83,2.67    c-5.88,0-11.09-1.19-15.62-3.58s-8.08-5.91-10.66-10.56c-2.58-4.65-3.87-10.19-3.87-16.62V74h19.01v39.75    c0,5.73,1.49,10.15,4.48,13.23c2.99,3.08,7.06,4.63,12.22,4.63c5.25,0,9.37-1.54,12.36-4.63c2.99-3.08,4.48-7.49,4.48-13.23V74    H430.41z"/>
		<path class="st0" d="M461.37,144.19c-4.89-2.13-8.76-5.02-11.61-8.67c-2.85-3.65-4.41-7.69-4.69-12.12h19.15    c0.36,2.78,1.79,5.08,4.28,6.91c2.49,1.82,5.59,2.74,9.3,2.74c3.62,0,6.45-0.69,8.49-2.08c2.04-1.39,3.06-3.17,3.06-5.34    c0-2.35-1.25-4.1-3.74-5.28c-2.49-1.17-6.45-2.45-11.88-3.84c-5.61-1.3-10.21-2.65-13.78-4.04c-3.58-1.39-6.65-3.52-9.23-6.39    c-2.58-2.87-3.87-6.73-3.87-11.6c0-4,1.2-7.65,3.6-10.95c2.4-3.3,5.84-5.91,10.32-7.82c4.48-1.91,9.75-2.87,15.82-2.87    c8.96,0,16.11,2.15,21.45,6.45c5.34,4.3,8.28,10.1,8.83,17.4h-18.2c-0.27-2.87-1.52-5.15-3.73-6.84c-2.22-1.7-5.18-2.54-8.9-2.54    c-3.44,0-6.09,0.61-7.94,1.82c-1.86,1.22-2.78,2.91-2.78,5.08c0,2.43,1.27,4.28,3.8,5.54c2.53,1.26,6.47,2.54,11.81,3.84    c5.43,1.3,9.91,2.65,13.44,4.04c3.53,1.39,6.58,3.54,9.16,6.45c2.58,2.91,3.92,6.76,4.01,11.53c0,4.17-1.2,7.91-3.6,11.21    s-5.84,5.89-10.32,7.75c-4.48,1.87-9.71,2.8-15.68,2.8C471.78,147.38,466.26,146.32,461.37,144.19z"/>
		<path class="st0" d="M595.12,74l-46.58,106.35h-20.23l16.29-35.97L514.46,74h21.32l19.42,50.44L574.89,74H595.12z"/>
		<path class="st0" d="M702.12,55.23v14.73h-25.26v76.25h-19.01V69.96H632.6V55.23H702.12z"/>
		<path class="st0" d="M715.63,90.42c3.03-5.65,7.15-9.99,12.36-13.03c5.2-3.04,11.02-4.56,17.45-4.56c5.61,0,10.52,1.09,14.73,3.26    c4.21,2.17,7.58,4.91,10.11,8.21V74h19.15v72.21h-19.15v-10.56c-2.44,3.39-5.82,6.19-10.11,8.41c-4.3,2.22-9.26,3.33-14.87,3.33    c-6.34,0-12.11-1.56-17.31-4.69c-5.21-3.13-9.32-7.54-12.36-13.23c-3.03-5.69-4.55-12.23-4.55-19.62    C711.08,102.54,712.6,96.07,715.63,90.42z M767.57,98.7c-1.81-3.17-4.26-5.6-7.33-7.3c-3.08-1.69-6.38-2.54-9.91-2.54    c-3.53,0-6.79,0.83-9.78,2.48c-2.99,1.65-5.41,4.06-7.26,7.23c-1.86,3.17-2.78,6.93-2.78,11.28c0,4.35,0.93,8.15,2.78,11.4    c1.85,3.26,4.3,5.76,7.33,7.49c3.03,1.74,6.27,2.61,9.71,2.61c3.53,0,6.83-0.85,9.91-2.54c3.08-1.69,5.52-4.13,7.33-7.3    c1.81-3.17,2.71-6.97,2.71-11.41C770.28,105.67,769.38,101.87,767.57,98.7z"/>
		<path class="st0" d="M820.25,144.19c-4.89-2.13-8.76-5.02-11.61-8.67c-2.85-3.65-4.41-7.69-4.69-12.12h19.15    c0.36,2.78,1.79,5.08,4.28,6.91c2.49,1.82,5.59,2.74,9.3,2.74c3.62,0,6.45-0.69,8.49-2.08c2.04-1.39,3.06-3.17,3.06-5.34    c0-2.35-1.25-4.1-3.73-5.28c-2.49-1.17-6.45-2.45-11.88-3.84c-5.61-1.3-10.21-2.65-13.78-4.04c-3.58-1.39-6.65-3.52-9.23-6.39    c-2.58-2.87-3.87-6.73-3.87-11.6c0-4,1.2-7.65,3.6-10.95c2.4-3.3,5.84-5.91,10.32-7.82c4.48-1.91,9.75-2.87,15.82-2.87    c8.96,0,16.11,2.15,21.45,6.45c5.34,4.3,8.28,10.1,8.83,17.4h-18.2c-0.27-2.87-1.52-5.15-3.73-6.84c-2.22-1.7-5.18-2.54-8.9-2.54    c-3.44,0-6.09,0.61-7.94,1.82c-1.86,1.22-2.78,2.91-2.78,5.08c0,2.43,1.27,4.28,3.8,5.54c2.53,1.26,6.47,2.54,11.81,3.84    c5.43,1.3,9.91,2.65,13.44,4.04c3.53,1.39,6.58,3.54,9.16,6.45c2.58,2.91,3.92,6.76,4.01,11.53c0,4.17-1.2,7.91-3.6,11.21    s-5.84,5.89-10.32,7.75c-4.48,1.87-9.71,2.8-15.68,2.8C830.66,147.38,825.14,146.32,820.25,144.19z"/>
		<path class="st0" d="M926.58,146.21l-25.53-30.76v30.76h-19.01V49.76h19.01v54.87L926.3,74h24.71l-33.13,36.23l33.41,35.97H926.58    z"/>
	</g>
	<g>
		<path class="st1" d="M149.4,171.85c-40.44,0-73.28-31.81-73.28-70.63c0-0.88,0-2.04,0-2.92s0-1.46,0-2.33    c2.74-36.48,34.66-65.37,73.58-65.66c9.12,0,17.63,1.75,25.84,4.67l16.42-20.43C178.89,8.71,164.6,5.5,149.4,5.5    c-54.73,0-99.42,42.9-99.42,95.72c0,52.82,44.69,95.72,99.73,95.72c44.38,0,82.17-28.22,94.86-67.06l-26.35-3.78    C207.66,152.75,180.72,171.85,149.4,171.85z"/>
	</g>
	<path class="st1" d="M122.31,79.93l-17.33,18.68l48.04,41.44l58.93-72.89c1.74,2.65,3.3,5.41,4.68,8.39   c3.87,8.36,5.87,17.08,6.22,25.73l0.19,0.02l26.09,3.43c0.08-13.17-2.67-26.56-8.6-39.37c-3.22-6.95-7.23-13.27-11.81-18.97   l0.01-0.01c-0.15-0.18-0.3-0.35-0.44-0.53c-0.3-0.37-0.6-0.72-0.91-1.09c-5.12-6.08-10.79-11.65-17.5-16.48l-16.11,19.85   l-44.39,55.16L122.31,79.93z"/>
</g>
</svg>