<?xml version="1.0" encoding="UTF-8"?>
<!-- Generator: Adobe Illustrator 25.0.0, SVG Export Plug-In . SVG Version: 6.00 Build 0)  -->
<svg version="1.1" id="Layer_1" xmlns="http://www.w3.org/2000/svg" xmlns:xlink="http://www.w3.org/1999/xlink" x="0px" y="0px" viewBox="0 0 1024 1024" style="enable-background:new 0 0 1024 1024;" xml:space="preserve">
<style type="text/css">
	.st0{fill-rule:evenodd;clip-rule:evenodd;fill:#FFD113;}
</style>
<g>
	<g>
		<path class="st0" d="M511.23,883.16c-203.98,0-369.63-167.18-369.63-371.16c0-4.6,0-10.74,0-15.34c0-4.6,0-7.67,0-12.27    c13.8-191.71,174.84-343.55,371.16-345.09c46.01,0,88.96,9.2,130.37,24.54l82.82-107.36C660,25.81,587.92,8.94,511.23,8.94    C235.16,8.94,9.71,234.4,9.71,512s225.46,503.06,503.06,503.06c223.89,0,414.47-148.29,478.53-352.41l-132.94-19.89    C805.12,782.8,669.25,883.16,511.23,883.16z"/>
	</g>
	<path class="st0" d="M374.59,400.09l-87.42,98.16L529.5,716.04l297.27-383.08c8.76,13.92,16.65,28.45,23.59,44.07   c19.51,43.93,29.6,89.75,31.36,135.23l0.96,0.13l131.61,18.02c0.42-69.21-13.48-139.61-43.39-206.92   c-16.22-36.51-36.46-69.74-59.56-99.69l0.06-0.07c-0.74-0.94-1.5-1.86-2.24-2.79c-1.51-1.92-3.05-3.81-4.58-5.7   c-25.84-31.95-54.45-61.23-88.27-86.59l-81.29,104.29L511.09,522.79L374.59,400.09z"/>
</g>
</svg>